<svg width="19" height="19" viewBox="0 0 19 19" fill="none" xmlns="http://www.w3.org/2000/svg">
<path d="M16.15 3.8H14.25V2.85C14.25 2.09413 13.9497 1.36922 13.4153 0.834746C12.8808 0.300267 12.1559 0 11.4 0H7.6C6.84413 0 6.11922 0.300267 5.58475 0.834746C5.05027 1.36922 4.75 2.09413 4.75 2.85V3.8H2.85C2.09413 3.8 1.36922 4.10027 0.834746 4.63475C0.300267 5.16922 0 5.89413 0 6.65V16.15C0 16.9059 0.300267 17.6308 0.834746 18.1653C1.36922 18.6997 2.09413 19 2.85 19H16.15C16.9059 19 17.6308 18.6997 18.1653 18.1653C18.6997 17.6308 19 16.9059 19 16.15V6.65C19 5.89413 18.6997 5.16922 18.1653 4.63475C17.6308 4.10027 16.9059 3.8 16.15 3.8ZM6.65 2.85C6.65 2.59804 6.75009 2.35641 6.92825 2.17825C7.10641 2.00009 7.34804 1.9 7.6 1.9H11.4C11.652 1.9 11.8936 2.00009 12.0718 2.17825C12.2499 2.35641 12.35 2.59804 12.35 2.85V3.8H6.65V2.85ZM17.1 16.15C17.1 16.402 16.9999 16.6436 16.8218 16.8218C16.6436 16.9999 16.402 17.1 16.15 17.1H2.85C2.59804 17.1 2.35641 16.9999 2.17825 16.8218C2.00009 16.6436 1.9 16.402 1.9 16.15V6.65C1.9 6.39804 2.00009 6.15641 2.17825 5.97825C2.35641 5.80009 2.59804 5.7 2.85 5.7H16.15C16.402 5.7 16.6436 5.80009 16.8218 5.97825C16.9999 6.15641 17.1 6.39804 17.1 6.65V16.15ZM15.2 14.25C15.2 14.502 15.0999 14.7436 14.9218 14.9218C14.7436 15.0999 14.502 15.2 14.25 15.2H4.75C4.49804 15.2 4.25641 15.0999 4.07825 14.9218C3.90009 14.7436 3.8 14.502 3.8 14.25C3.8 13.998 3.90009 13.7564 4.07825 13.5782C4.25641 13.4001 4.49804 13.3 4.75 13.3H14.25C14.502 13.3 14.7436 13.4001 14.9218 13.5782C15.0999 13.7564 15.2 13.998 15.2 14.25Z" fill="#81839C"/>
</svg>
