<svg width="17" height="17" viewBox="0 0 17 17" fill="none" xmlns="http://www.w3.org/2000/svg">
<path d="M11.4709 11.9346C11.7832 12.2468 12.2895 12.2468 12.6018 11.9346V11.9346C12.9139 11.6225 12.9142 11.1167 12.6024 10.8043L10.2 8.39662C9.81055 8.00627 9.81055 7.3743 10.2 6.98395L12.6025 4.5763C12.9142 4.26391 12.9139 3.75806 12.6018 3.44602V3.44602C12.2895 3.13373 11.7832 3.13373 11.4709 3.44602L7.93377 6.98318C7.54325 7.3737 7.54325 8.00687 7.93377 8.39739L11.4709 11.9346Z" fill="#0D1361"/>
<path d="M7.07758 11.9346C7.38987 12.2468 7.89619 12.2468 8.20848 11.9346V11.9346C8.52053 11.6225 8.52081 11.1167 8.2091 10.8043L5.80669 8.39662C5.4172 8.00627 5.4172 7.3743 5.8067 6.98395L8.2091 4.5763C8.52081 4.26391 8.52053 3.75806 8.20848 3.44602V3.44602C7.89619 3.13373 7.38987 3.13373 7.07758 3.44602L3.54042 6.98318C3.1499 7.3737 3.1499 8.00687 3.54042 8.39739L7.07758 11.9346Z" fill="#0D1361"/>
</svg>
