<svg width="27" height="29" viewBox="0 0 27 29" fill="none" xmlns="http://www.w3.org/2000/svg">
<g clip-path="url(#clip0_1376_1020)">
<path d="M8.52987 9.88235H8.54164M14.4122 9.88235H14.424M18.5299 4C19.4659 4 20.3637 4.37185 21.0255 5.03374C21.6874 5.69563 22.0593 6.59335 22.0593 7.52941V16.9412C22.0593 17.8772 21.6874 18.775 21.0255 19.4368C20.3637 20.0987 19.4659 20.4706 18.5299 20.4706H12.6475L6.76517 24V20.4706H4.41222C3.47617 20.4706 2.57845 20.0987 1.91655 19.4368C1.25466 18.775 0.882813 17.8772 0.882812 16.9412V7.52941C0.882813 6.59335 1.25466 5.69563 1.91655 5.03374C2.57845 4.37185 3.47617 4 4.41222 4H18.5299Z" stroke="#808BA0" stroke-width="2.4" stroke-linecap="round" stroke-linejoin="round"/>
<path d="M8.5293 14.5879C8.91268 14.9792 9.3703 15.29 9.87533 15.5023C10.3804 15.7145 10.9227 15.8238 11.4705 15.8238C12.0183 15.8238 12.5606 15.7145 13.0656 15.5023C13.5707 15.29 14.0283 14.9792 14.4117 14.5879" stroke="#808BA0" stroke-width="2.4" stroke-linecap="round" stroke-linejoin="round"/>
</g>
<defs>
<clipPath id="clip0_1376_1020">
<rect width="27" height="28.2273" fill="white"/>
</clipPath>
</defs>
</svg>
