<svg width="27" height="29" viewBox="0 0 27 29" fill="none" xmlns="http://www.w3.org/2000/svg">
<path d="M5.44444 10.9H7.66667V13.1H5.44444V10.9ZM21 5.4V20.8C21 22.01 20 23 18.7778 23H3.22222C1.98889 23 1 22.01 1 20.8L1.01111 5.4C1.01111 4.19 1.98889 3.2 3.22222 3.2H4.33333V1H6.55556V3.2H15.4444V1H17.6667V3.2H18.7778C20 3.2 21 4.19 21 5.4ZM3.22222 7.6H18.7778V5.4H3.22222V7.6ZM18.7778 20.8V9.8H3.22222V20.8H18.7778ZM14.3333 13.1H16.5556V10.9H14.3333V13.1ZM9.88889 13.1H12.1111V10.9H9.88889V13.1Z" fill="#9099AC"/>
</svg>
