<svg width="27" height="29" viewBox="0 0 27 29" fill="none" xmlns="http://www.w3.org/2000/svg">
<path d="M10.8889 6.44444H17.5556V8.66667H10.8889V6.44444ZM10.8889 10.8889H17.5556V13.1111H10.8889V10.8889ZM10.8889 15.3333H17.5556V17.5556H10.8889V15.3333ZM6.44444 6.44444H8.66667V8.66667H6.44444V6.44444ZM6.44444 10.8889H8.66667V13.1111H6.44444V10.8889ZM6.44444 15.3333H8.66667V17.5556H6.44444V15.3333ZM21 2H3C2.44444 2 2 2.44444 2 3V21C2 21.4444 2.44444 22 3 22H21C21.4444 22 22 21.4444 22 21V3C22 2.44444 21.4444 2 21 2ZM19.7778 19.7778H4.22222V4.22222H19.7778V19.7778Z" fill="url(#paint0_linear_1376_1005)"/>
<defs>
<linearGradient id="paint0_linear_1376_1005" x1="12" y1="2" x2="12" y2="22" gradientUnits="userSpaceOnUse">
<stop stop-color="#E83251"/>
<stop offset="1" stop-color="#E9456D"/>
</linearGradient>
</defs>
</svg>
