<svg width="17" height="17" viewBox="0 0 17 17" fill="none" xmlns="http://www.w3.org/2000/svg">
<path d="M5.52908 5.06545C5.21679 4.75316 4.71047 4.75316 4.39818 5.06545V5.06545C4.08613 5.3775 4.08585 5.88334 4.39756 6.19573L6.79997 8.60338C7.18946 8.99373 7.18946 9.6257 6.79996 10.0161L4.39756 12.4237C4.08585 12.7361 4.08613 13.2419 4.39818 13.554V13.554C4.71047 13.8663 5.21679 13.8663 5.52908 13.554L9.06624 10.0168C9.45676 9.6263 9.45676 8.99313 9.06624 8.60261L5.52908 5.06545Z" fill="#080F5E"/>
<path d="M9.92239 5.06545C9.6101 4.75316 9.10378 4.75316 8.79149 5.06545V5.06545C8.47944 5.3775 8.47916 5.88334 8.79087 6.19573L11.1933 8.60338C11.5828 8.99373 11.5828 9.6257 11.1933 10.0161L8.79087 12.4237C8.47916 12.7361 8.47944 13.2419 8.79149 13.554V13.554C9.10378 13.8663 9.6101 13.8663 9.92239 13.554L13.4595 10.0168C13.8501 9.6263 13.8501 8.99313 13.4595 8.60261L9.92239 5.06545Z" fill="#080F5E"/>
</svg>
