<svg width="18" height="22" viewBox="0 0 18 22" fill="none" xmlns="http://www.w3.org/2000/svg">
<path d="M9.12563 11.9751C10.6996 11.9751 11.9756 10.6991 11.9756 9.1251C11.9756 7.55109 10.6996 6.2751 9.12563 6.2751C7.55162 6.2751 6.27563 7.55109 6.27563 9.1251C6.27563 10.6991 7.55162 11.9751 9.12563 11.9751Z" stroke="#81839C" stroke-width="2.2" stroke-linecap="round" stroke-linejoin="round"/>
<path d="M16.25 9.125C16.25 15.5375 9.125 20.525 9.125 20.525C9.125 20.525 2 15.5375 2 9.125C2 7.23533 2.75067 5.42306 4.08686 4.08686C5.42306 2.75067 7.23533 2 9.125 2C11.0147 2 12.8269 2.75067 14.1631 4.08686C15.4993 5.42306 16.25 7.23533 16.25 9.125V9.125Z" stroke="#81839C" stroke-width="2.2" stroke-linecap="round" stroke-linejoin="round"/>
</svg>
