<svg width="22" height="23" viewBox="0 0 22 23" fill="none" xmlns="http://www.w3.org/2000/svg">
<path d="M9.6793 21.482C9.6793 21.8342 9.54024 22.172 9.29271 22.4211C9.04518 22.6701 8.70946 22.81 8.3594 22.81H2.19984C1.61641 22.81 1.05687 22.5768 0.644318 22.1617C0.231768 21.7467 0 21.1837 0 20.5967V2.89008C0 2.30307 0.231768 1.7401 0.644318 1.32503C1.05687 0.909947 1.61641 0.676758 2.19984 0.676758H8.3594C8.70946 0.676758 9.04518 0.816671 9.29271 1.06572C9.54024 1.31477 9.6793 1.65255 9.6793 2.00475C9.6793 2.35696 9.54024 2.69474 9.29271 2.94379C9.04518 3.19284 8.70946 3.33275 8.3594 3.33275H2.63981V20.154H8.3594C8.70946 20.154 9.04518 20.2939 9.29271 20.543C9.54024 20.792 9.6793 21.1298 9.6793 21.482ZM21.6123 10.8038L17.2127 6.37718C16.9647 6.1277 16.6284 5.98754 16.2777 5.98754C15.9271 5.98754 15.5907 6.1277 15.3428 6.37718C15.0948 6.62666 14.9555 6.96502 14.9555 7.31784C14.9555 7.67066 15.0948 8.00903 15.3428 8.2585L17.4887 10.4154H8.3594C8.00933 10.4154 7.67361 10.5553 7.42608 10.8044C7.17855 11.0534 7.03949 11.3912 7.03949 11.7434C7.03949 12.0956 7.17855 12.4334 7.42608 12.6824C7.67361 12.9315 8.00933 13.0714 8.3594 13.0714H17.4887L15.3417 15.2305C15.0937 15.48 14.9544 15.8183 14.9544 16.1711C14.9544 16.524 15.0937 16.8623 15.3417 17.1118C15.5896 17.3613 15.926 17.5014 16.2766 17.5014C16.6273 17.5014 16.9636 17.3613 17.2116 17.1118L21.6112 12.6852C21.7344 12.5619 21.8321 12.4153 21.8988 12.2539C21.9655 12.0925 21.9999 11.9195 22 11.7447C22.0001 11.5699 21.9659 11.3969 21.8994 11.2354C21.8329 11.0739 21.7353 10.9273 21.6123 10.8038Z" fill="#808BA0"/>
</svg>
