<svg width="70" height="71" viewBox="0 0 70 71" fill="none" xmlns="http://www.w3.org/2000/svg">
<path d="M69.1074 7.59424C69.1074 9.74158 68.3691 11.5223 66.8924 12.9888C65.4158 14.4552 63.6227 15.1885 61.5132 15.1885C59.4037 15.1885 57.6106 14.4552 56.1339 12.9888C54.6573 11.5223 53.9189 9.68921 53.9189 7.59424C53.9189 5.49928 54.6573 3.66618 56.1339 2.19971C57.6106 0.733236 59.4037 0 61.5132 0C63.6227 0 65.4158 0.733236 66.8924 2.19971C68.3691 3.66618 69.1074 5.49928 69.1074 7.59424Z" fill="url(#paint0_linear_1376_948)"/>
<path d="M3.76471 66.7964C2.75304 65.7329 2.80629 64.0844 3.87121 63.0741L31.2395 37.1778C32.3044 36.1675 33.955 36.2207 34.9667 37.2842C35.9784 38.3477 35.9251 39.9961 34.8602 41.0064L7.49191 66.9027C6.42699 67.8598 4.77638 67.8067 3.76471 66.7964Z" fill="url(#paint1_linear_1376_948)"/>
<path d="M21.2927 69.8642C20.2498 68.8395 20.2498 67.1675 21.2405 66.0888L36.5698 50.1782C37.5605 49.0995 39.1768 49.0995 40.2196 50.1243C41.2624 51.149 41.2624 52.821 40.2717 53.8997L24.9425 69.8103C23.9518 70.889 22.3355 70.889 21.2927 69.8642Z" fill="url(#paint2_linear_1376_948)"/>
<path d="M4.52426 51.6108C3.52055 50.5416 3.57336 48.8842 4.57707 47.8684L20.6365 32.6312C21.693 31.6153 23.3306 31.6688 24.3344 32.6846C25.3381 33.7539 25.2852 35.4113 24.2815 36.4271L8.22215 51.6643C7.21843 52.6801 5.52797 52.6267 4.52426 51.6108Z" fill="url(#paint3_linear_1376_948)"/>
<path d="M57.1129 58.4756C56.7402 58.4224 56.4207 58.3693 56.1012 58.3161C55.6221 58.2098 55.1429 58.1566 54.7169 58.0503C54.6104 58.0503 54.4507 58.0503 54.3442 57.9971C53.865 57.9439 53.3858 57.8376 52.9066 57.7844C52.2677 57.6781 51.5755 57.5717 50.9366 57.4654C50.4042 57.3591 49.925 57.2527 49.3926 57.1996C48.9134 57.0932 48.3809 57.0401 47.9017 56.9869C47.742 56.9869 47.6355 56.9337 47.6355 56.7211C47.6355 56.2957 47.6355 55.8704 47.6355 55.3918C47.6355 54.6475 47.5823 53.85 47.529 53.1056C47.4758 52.4676 47.4758 51.8827 47.4226 51.2447C47.3693 50.7662 47.3693 50.2345 47.3161 49.756C47.2628 49.2243 47.2096 48.6926 47.1031 48.1609C47.0499 47.7356 46.9966 47.257 46.8901 46.8317C46.7836 46.2468 46.6771 45.662 46.5707 45.0771C46.4642 44.4923 46.3044 43.9074 46.1447 43.3226C45.985 42.7909 45.8785 42.206 45.7188 41.6744C45.559 41.249 45.3993 40.8237 45.2396 40.3451C45.1331 40.0261 45.0266 39.6539 44.8669 39.3349C44.7071 38.9627 44.5474 38.5906 44.3877 38.2184C44.1747 37.793 44.015 37.3677 43.802 36.8892C43.6955 36.6765 43.589 36.4638 43.4293 36.2512C43.2163 35.879 43.0034 35.5068 42.7371 35.1346C42.5774 34.8688 42.3644 34.6029 42.1515 34.3371C41.7255 33.8586 41.3528 33.3269 40.9269 32.9015C40.7139 32.6357 40.3944 32.4762 40.1814 32.2635C39.862 31.9977 39.5958 31.6787 39.2763 31.466C38.7439 31.0406 38.1582 30.6153 37.5725 30.2963C37.0933 30.0304 36.6141 29.7646 36.0817 29.4987C35.6025 29.2861 35.1233 29.1266 34.6441 28.9139C34.2182 28.7544 33.8455 28.5949 33.4195 28.4354C33.1001 28.329 32.7806 28.2759 32.4612 28.1695C32.0884 28.0632 31.7158 27.9569 31.2898 27.8505C30.7574 27.7442 30.2782 27.5847 29.7457 27.4783C29.4263 27.4252 29.0536 27.372 28.7341 27.3188C28.3082 27.2657 27.829 27.1593 27.403 27.1062C26.6044 26.9998 25.859 26.9467 25.0603 26.8935C24.2084 26.8403 23.4098 26.7871 22.5579 26.7871C21.3333 26.734 20.1087 26.734 18.8841 26.734C17.9789 26.734 17.0206 26.7872 16.1154 26.8403C15.5298 26.8935 14.9441 26.8935 14.3052 26.9467C13.9857 26.9998 13.6662 27.053 13.3468 27.053C13.2935 27.053 13.187 26.9998 13.187 26.9467C12.9741 26.3086 12.8143 25.6706 12.6546 25.0326C12.4416 24.3414 12.2287 23.6502 12.0689 22.959C11.9092 22.4273 11.7495 21.8956 11.643 21.4171C11.4833 20.8854 11.3235 20.3538 11.1638 19.8221C11.0041 19.3436 10.8976 18.9182 10.7378 18.4397C10.6846 18.3333 10.6846 18.227 10.6313 18.1207C10.7911 18.0675 11.0041 18.0143 11.1638 17.908C11.4832 17.8017 11.8027 17.6422 12.1222 17.5358C12.4416 17.4295 12.8143 17.3231 13.1338 17.1636C13.613 17.0041 14.0922 16.8446 14.5714 16.632C14.8376 16.5256 15.0506 16.4724 15.3168 16.4193C15.796 16.2598 16.2752 16.1003 16.7543 15.9939C17.127 15.8876 17.4998 15.7281 17.8725 15.6217C18.0322 15.5686 18.2452 15.5154 18.4049 15.4622C18.8308 15.3559 19.31 15.1964 19.736 15.0901C20.0022 15.0369 20.2684 14.9837 20.5346 14.9306C20.9606 14.8242 21.3333 14.7179 21.7592 14.6115C22.0787 14.5584 22.3449 14.5052 22.6644 14.452C23.0371 14.3457 23.4098 14.2925 23.7825 14.1862C23.9422 14.133 24.1019 14.133 24.2617 14.0799C24.7941 13.9735 25.2733 13.8672 25.8057 13.7608C25.9122 13.7608 26.0719 13.7609 26.1784 13.7077C26.7109 13.6013 27.2433 13.495 27.7757 13.4418C27.9355 13.4418 28.0952 13.3887 28.2017 13.3887C28.8406 13.3355 29.5328 13.2823 30.1717 13.176C30.9703 13.0697 31.8222 13.0165 32.6209 12.9633C34.0585 12.9633 35.496 12.9102 36.9336 12.9102C37.5193 12.9102 38.1582 12.9633 38.7439 13.0165C39.2763 13.0697 39.8088 13.1228 40.3412 13.2292C40.7139 13.2823 41.1398 13.3355 41.5125 13.4418C42.1515 13.6013 42.7904 13.7609 43.3761 13.9204C43.8552 14.0267 44.3344 14.133 44.7604 14.2925C45.1863 14.3989 45.559 14.5584 45.985 14.7179C46.3045 14.8242 46.6239 14.9837 46.9434 15.0901C47.1563 15.1432 47.3161 15.2496 47.529 15.3559C48.0615 15.6217 48.5939 15.8876 49.0731 16.1534C49.4991 16.3661 49.8717 16.632 50.2977 16.8978C50.7236 17.1636 51.0964 17.4295 51.4691 17.7485C51.7353 17.9612 51.9482 18.1738 52.2145 18.3865C52.4807 18.6524 52.8001 18.865 53.0664 19.0777C53.3326 19.2904 53.5456 19.5562 53.8118 19.8221C54.1845 20.2474 54.5572 20.6728 54.8766 21.0981C55.3026 21.683 55.7818 22.2678 56.1545 22.8527C56.4739 23.3844 56.7934 23.9692 57.0596 24.5009C57.2726 24.9262 57.5388 25.4048 57.6985 25.8301C57.9115 26.3086 58.0712 26.8403 58.2842 27.372C58.4439 27.8505 58.6037 28.2759 58.7634 28.7544C58.8699 29.0734 58.9231 29.3924 59.0296 29.7114C59.1361 30.0836 59.2426 30.4558 59.2958 30.828C59.3491 31.0406 59.4023 31.3065 59.4023 31.5192C59.4556 31.9977 59.5621 32.5294 59.6153 33.0079C59.7218 33.7522 59.775 34.5498 59.8283 35.3473C60.0413 36.9423 59.988 38.4842 59.988 40.0793C59.988 40.611 59.9348 41.1427 59.8815 41.7275C59.8283 42.2592 59.8283 42.7909 59.775 43.3226C59.7218 43.8011 59.6685 44.2796 59.6153 44.7581C59.5621 45.2366 59.5088 45.7152 59.4556 46.1937C59.4023 46.7254 59.2958 47.2039 59.1894 47.7356C59.1361 48.0014 59.1361 48.3204 59.0829 48.5863C58.9764 49.0648 58.9231 49.4901 58.8166 49.9686C58.7634 50.2345 58.7102 50.5003 58.6569 50.7662C58.5504 51.351 58.3907 51.9359 58.2842 52.4676C58.1777 52.8397 58.1245 53.2651 58.018 53.6373C57.9115 53.9563 57.8583 54.3285 57.7518 54.6475C57.6453 55.0197 57.592 55.3387 57.4856 55.7108C57.3258 56.2425 57.1661 56.8274 57.0064 57.3591C56.9531 57.5186 56.8999 57.7312 56.8466 57.9439C57.2194 58.1566 57.1661 58.3161 57.1129 58.4756Z" fill="url(#paint4_linear_1376_948)"/>
<path d="M9.49281 18.2266C10.3607 21.337 11.2829 24.4475 12.1508 27.558C12.0423 27.558 11.9338 27.6135 11.8253 27.6135C11.2286 27.7246 10.5777 27.7802 9.981 27.8912C9.4928 27.9468 9.00461 28.0579 8.51641 28.1134C7.91972 28.2245 7.37727 28.3356 6.78058 28.4467C6.61784 28.5022 6.45511 28.5022 6.23813 28.5022C5.53295 28.6133 4.88202 28.7244 4.17684 28.8355C3.95986 28.891 3.68863 28.8355 3.47165 28.7799C3.20043 28.7244 2.92922 28.6689 2.60375 28.6133C2.11555 28.4467 1.62735 28.169 1.24764 27.8357C0.813679 27.4469 0.488201 26.947 0.271223 26.3916C0.0542446 25.8917 0 25.4473 0 24.8919C0 24.0587 0.27122 23.3366 0.759421 22.6701C1.03064 22.3368 1.30188 22.0036 1.73583 21.7814C2.22404 21.5592 2.71223 21.2259 3.20043 21.0038C3.74287 20.726 4.28532 20.5039 4.82777 20.2262C5.37021 19.9484 5.91266 19.7263 6.4551 19.5041C6.99755 19.2819 7.48577 19.0597 8.02821 18.782C8.51641 18.6154 9.00461 18.4487 9.49281 18.2266Z" fill="url(#paint5_linear_1376_948)"/>
<path d="M47.458 57.7158C47.6724 57.7704 47.9403 57.7704 48.1547 57.825C48.6905 57.9343 49.28 57.9889 49.8158 58.0981C50.566 58.2073 51.2626 58.3165 52.0128 58.4803C52.6023 58.5896 53.1917 58.6988 53.7276 58.808C54.2634 58.9172 54.8529 58.9718 55.3887 59.081C55.871 59.1357 56.2997 59.2449 56.782 59.2995C56.8892 59.2995 56.9963 59.4087 56.9427 59.5725C56.782 60.064 56.6212 60.5555 56.4605 61.047C56.3533 61.3746 56.1925 61.7023 56.0854 62.0299C56.0318 62.1938 55.9782 62.303 55.9246 62.4668C55.7638 62.9583 55.6031 63.4498 55.3887 63.9413C55.228 64.3781 55.0672 64.815 54.9065 65.2519C54.7457 65.6342 54.6385 66.0164 54.4778 66.3987C54.2634 67.054 53.9419 67.6547 53.4061 68.0916C52.9238 68.5284 52.3879 68.8015 51.7985 68.9653C51.3162 69.1291 50.8339 69.1291 50.3517 69.0745C49.923 69.0199 49.4943 68.9107 49.1192 68.6923C48.5297 68.3646 47.9939 67.9823 47.6724 67.3816C47.4045 66.9448 47.1901 66.5079 47.1365 65.9618C46.9758 65.1427 47.2437 64.3235 47.1901 63.5044C47.1901 63.4498 47.1901 63.4498 47.1901 63.3952C47.2437 62.6306 47.2437 61.8661 47.2973 61.1016C47.3509 60.1732 47.4045 59.2449 47.458 58.2619C47.3509 58.0981 47.4045 57.9343 47.458 57.7158Z" fill="url(#paint6_linear_1376_948)"/>
<defs>
<linearGradient id="paint0_linear_1376_948" x1="61.5132" y1="0" x2="61.5132" y2="15.1885" gradientUnits="userSpaceOnUse">
<stop stop-color="#E83251"/>
<stop offset="1" stop-color="#E9456D"/>
</linearGradient>
<linearGradient id="paint1_linear_1376_948" x1="19.3657" y1="36.4521" x2="19.3657" y2="67.5885" gradientUnits="userSpaceOnUse">
<stop stop-color="#E83251"/>
<stop offset="1" stop-color="#E9456D"/>
</linearGradient>
<linearGradient id="paint2_linear_1376_948" x1="30.7561" y1="49.3623" x2="30.7561" y2="70.6262" gradientUnits="userSpaceOnUse">
<stop stop-color="#E83251"/>
<stop offset="1" stop-color="#E9456D"/>
</linearGradient>
<linearGradient id="paint3_linear_1376_948" x1="14.4293" y1="31.8955" x2="14.4293" y2="52.4" gradientUnits="userSpaceOnUse">
<stop stop-color="#E83251"/>
<stop offset="1" stop-color="#E9456D"/>
</linearGradient>
<linearGradient id="paint4_linear_1376_948" x1="35.3126" y1="12.9102" x2="35.3126" y2="58.4756" gradientUnits="userSpaceOnUse">
<stop stop-color="#E83251"/>
<stop offset="1" stop-color="#E9456D"/>
</linearGradient>
<linearGradient id="paint5_linear_1376_948" x1="6.07539" y1="18.2266" x2="6.07539" y2="28.8585" gradientUnits="userSpaceOnUse">
<stop stop-color="#E83251"/>
<stop offset="1" stop-color="#E9456D"/>
</linearGradient>
<linearGradient id="paint6_linear_1376_948" x1="52.0207" y1="57.7158" x2="52.0207" y2="69.1072" gradientUnits="userSpaceOnUse">
<stop stop-color="#E83251"/>
<stop offset="1" stop-color="#E9456D"/>
</linearGradient>
</defs>
</svg>
