<svg width="25" height="26" viewBox="0 0 25 26" fill="none" xmlns="http://www.w3.org/2000/svg">
<path d="M12.0369 13.8164C8.32261 13.8164 0.925781 15.6639 0.925781 19.343V22.1063H23.148V19.343C23.148 15.6639 15.7512 13.8164 12.0369 13.8164ZM4.64007 18.9482C5.9734 18.0324 9.19562 16.9745 12.0369 16.9745C14.8782 16.9745 18.1004 18.0324 19.4337 18.9482H4.64007ZM12.0369 11.0531C15.1004 11.0531 17.5924 8.57408 17.5924 5.52657C17.5924 2.47906 15.1004 0 12.0369 0C8.9734 0 6.48134 2.47906 6.48134 5.52657C6.48134 8.57408 8.9734 11.0531 12.0369 11.0531ZM12.0369 3.15804C13.3544 3.15804 14.4178 4.21598 14.4178 5.52657C14.4178 6.83716 13.3544 7.8951 12.0369 7.8951C10.7194 7.8951 9.65594 6.83716 9.65594 5.52657C9.65594 4.21598 10.7194 3.15804 12.0369 3.15804Z" fill="#808BA0"/>
</svg>
