<svg width="46" height="46" viewBox="0 0 46 46" fill="none" xmlns="http://www.w3.org/2000/svg">
<rect y="0.0302734" width="45.8473" height="45.8473" rx="22.9237" fill="white"/>
<path d="M19.6924 33.8789C20.2594 35.1539 21.5166 36.053 23.0005 36.053C24.4844 36.053 25.7416 35.1539 26.3087 33.8789C25.2624 33.9301 24.1743 33.9645 23.0005 33.9645C21.8268 33.9645 20.7387 33.93 19.6924 33.8789Z" fill="#080F5E"/>
<path d="M34.5181 28.352C33.1418 26.6164 30.8319 23.2049 30.8319 19.8675C30.8319 16.5584 28.7059 13.5812 25.6107 12.4868C25.5732 11.0792 24.4161 9.94727 23.0012 9.94727C21.5852 9.94727 20.4292 11.0792 20.3916 12.4868C17.2954 13.5812 15.1694 16.5584 15.1694 19.8675C15.1694 23.206 12.8606 26.6164 11.4832 28.352C11.0238 28.9315 10.8817 29.697 11.1042 30.3997C11.3214 31.0858 11.8623 31.6173 12.5515 31.8199C13.7586 32.176 15.7374 32.577 18.7553 32.7816C20.0616 32.8693 21.4662 32.9205 23.0012 32.9205C24.5352 32.9205 25.9397 32.8693 27.246 32.7816C30.265 32.577 32.2427 32.176 33.4509 31.8199C34.1401 31.6173 34.68 31.0858 34.8972 30.3997C35.1196 29.697 34.9765 28.9315 34.5181 28.352Z" fill="#080F5E"/>
<circle cx="31.935" cy="10.935" r="8.935" fill="url(#paint0_linear_1376_971)"/>
<path d="M33.8075 6.858V8.1H30.53L30.4955 9.7215C30.7025 9.664 31.0015 9.618 31.3695 9.618C32.968 9.618 34.0835 10.676 34.0835 12.3205C34.0835 14.0225 32.853 15.138 31.1395 15.138C29.817 15.138 28.874 14.494 28.506 13.275L29.955 12.884C30.1505 13.482 30.5875 13.827 31.289 13.827C32.1055 13.827 32.7035 13.229 32.7035 12.4355C32.7035 11.4005 31.956 10.86 30.7945 10.86C30.1965 10.86 29.587 11.0095 29.0925 11.251L29.173 6.858H33.8075Z" fill="white"/>
<defs>
<linearGradient id="paint0_linear_1376_971" x1="31.935" y1="2" x2="31.935" y2="19.87" gradientUnits="userSpaceOnUse">
<stop stop-color="#E83251"/>
<stop offset="1" stop-color="#E9456D"/>
</linearGradient>
</defs>
</svg>
