<svg width="27" height="29" viewBox="0 0 27 29" fill="none" xmlns="http://www.w3.org/2000/svg">
<path d="M11.4829 27C10.1101 27 8.95241 25.9774 8.78298 24.6151L8.68697 23.8432C8.62239 23.324 8.26703 22.8984 7.8209 22.625C7.37494 22.3517 6.82599 22.2807 6.34416 22.4841L5.67731 22.7657C4.38838 23.31 2.8959 22.8083 2.1975 21.5959L1.20503 19.8731C0.515993 18.677 0.82258 17.1552 1.92102 16.3192L2.86633 15.5998C3.07404 15.4417 3.17164 15.1835 3.17164 14.9225V14.0788C3.17164 13.817 3.07366 13.558 2.86534 13.3995L1.92102 12.6808C0.82258 11.8448 0.515994 10.323 1.20503 9.12692L2.19846 7.40242C2.89632 6.19101 4.38762 5.68968 5.67554 6.23353L6.33256 6.51097C6.82146 6.71741 7.378 6.6434 7.83582 6.375C8.28178 6.11356 8.62145 5.68356 8.68525 5.17058L8.77919 4.41532C8.95079 3.03569 10.1233 2 11.5135 2H13.5171C14.8899 2 16.0476 3.02264 16.217 4.38489L16.3129 5.15569C16.3776 5.6756 16.7332 6.10195 17.1803 6.375C17.626 6.64713 18.1739 6.71937 18.6549 6.51625L19.3262 6.23277C20.6131 5.68935 22.1033 6.19029 22.8006 7.40074L23.795 9.12693C24.484 10.323 24.1774 11.8448 23.079 12.6808L22.1347 13.3995C21.9263 13.558 21.8284 13.817 21.8284 14.0788V14.9212C21.8284 15.1797 21.9015 15.4467 22.1071 15.6032L23.165 16.4084C24.1965 17.1934 24.4844 18.6224 23.8373 19.7455L22.7615 21.6131C22.0693 22.8147 20.5886 23.31 19.3127 22.7667L18.6664 22.4914C18.1784 22.2836 17.6218 22.3567 17.1642 22.625C16.7182 22.8864 16.3786 23.3164 16.3148 23.8294L16.2208 24.5847C16.0492 25.9643 14.8767 27 13.4865 27H11.4829ZM11.1067 23.2751C11.1921 23.9744 11.7858 24.5 12.4902 24.5C13.1897 24.5 13.7808 23.9815 13.872 23.2879L13.9588 22.627C14.0732 21.757 14.7205 21.0732 15.5075 20.685C15.6535 20.613 15.7966 20.5359 15.9366 20.4538C16.0729 20.3738 16.2064 20.2896 16.337 20.2011C17.0587 19.7124 17.9702 19.5003 18.775 19.8352L19.3891 20.0908C20.0365 20.3603 20.7833 20.1054 21.1308 19.4963C21.4766 18.8904 21.3198 18.1221 20.7643 17.7001L19.8162 16.9799C19.3664 16.6383 19.2066 16.0452 19.2786 15.485C19.3201 15.1625 19.3408 14.8342 19.3408 14.5C19.3408 14.1667 19.3201 13.8387 19.2786 13.5163C19.2065 12.9552 19.3667 12.3615 19.8172 12.0193L20.7685 11.2967C21.3216 10.8766 21.4777 10.1116 21.1335 9.50829C20.7851 8.89792 20.0347 8.64542 19.3883 8.92104L18.792 9.17527C17.9814 9.5209 17.0592 9.29776 16.3325 8.7992C16.2033 8.71058 16.0713 8.62668 15.9366 8.5475C15.796 8.46489 15.6522 8.38736 15.5054 8.31492C14.7208 7.92775 14.0784 7.2418 13.9724 6.37325L13.8933 5.72487C13.8079 5.02563 13.2143 4.5 12.5098 4.5C11.8103 4.5 11.2192 5.01854 11.128 5.71209L11.0412 6.37298C10.9268 7.24303 10.2794 7.92663 9.49288 8.31586C9.34711 8.388 9.20438 8.46521 9.06468 8.5475C8.92756 8.62827 8.79331 8.71322 8.66193 8.80236C7.94172 9.29103 7.03148 9.50045 6.22796 9.16602L5.60669 8.90744C4.96169 8.63898 4.21773 8.8929 3.87145 9.49968C3.52502 10.1067 3.68515 10.8768 4.24487 11.2954L5.16719 11.9852C5.62815 12.33 5.7971 12.9294 5.72139 13.5C5.67993 13.8125 5.6592 14.1458 5.6592 14.5C5.6592 14.8333 5.67993 15.1562 5.72139 15.4688C5.79721 16.0402 5.63057 16.6406 5.17151 16.9893L4.2315 17.7033C3.67838 18.1234 3.52227 18.8884 3.86654 19.4917C4.21486 20.1021 4.96526 20.3546 5.61171 20.079L6.20799 19.8247C7.01864 19.4791 7.94094 19.7021 8.66741 20.2009C8.797 20.2899 8.92942 20.3742 9.06468 20.4538C9.20446 20.536 9.34721 20.6131 9.49294 20.6851C10.2779 21.0731 10.9217 21.7591 11.0278 22.6283L11.1067 23.2751ZM12.5622 18.875C13.7645 18.875 14.7906 18.4479 15.6405 17.5938C16.4905 16.7396 16.9154 15.7083 16.9154 14.5C16.9154 13.2917 16.4905 12.2604 15.6405 11.4062C14.7906 10.5521 13.7645 10.125 12.5622 10.125C11.3391 10.125 10.3076 10.5521 9.46766 11.4062C8.6277 12.2604 8.20813 13.2917 8.20896 14.5C8.20896 15.7083 8.62894 16.7396 9.46891 17.5938C10.3089 18.4479 11.34 18.875 12.5622 18.875Z" fill="#808BA0"/>
</svg>
