<svg width="24" height="25" viewBox="0 0 24 25" fill="none" xmlns="http://www.w3.org/2000/svg">
<path d="M14.71 13.21L10.71 17.21C10.5217 17.3983 10.2663 17.5041 10 17.5041C9.7337 17.5041 9.47831 17.3983 9.29 17.21C9.1017 17.0217 8.99591 16.7663 8.99591 16.5C8.99591 16.2337 9.1017 15.9783 9.29 15.79L12.59 12.5L9.29 9.21C9.1017 9.0217 8.99591 8.7663 8.99591 8.5C8.99591 8.36814 9.02188 8.23758 9.07234 8.11575C9.1228 7.99393 9.19676 7.88324 9.29 7.79C9.38324 7.69676 9.49393 7.6228 9.61575 7.57234C9.73757 7.52188 9.86814 7.49591 10 7.49591C10.2663 7.49591 10.5217 7.6017 10.71 7.79L14.71 11.79C14.8037 11.883 14.8781 11.9936 14.9289 12.1154C14.9797 12.2373 15.0058 12.368 15.0058 12.5C15.0058 12.632 14.9797 12.7627 14.9289 12.8846C14.8781 13.0064 14.8037 13.117 14.71 13.21V13.21Z" fill="#1FC377"/>
</svg>
