<svg width="67" height="64" viewBox="0 0 67 64" fill="none" xmlns="http://www.w3.org/2000/svg">
<rect x="1" y="3" width="66" height="59" rx="12" fill="white"/>
<g clip-path="url(#clip0_1376_1169)">
<path d="M18.3189 29.5036L17.4835 32.6223L14.4301 32.6869C13.5176 30.9944 13 29.0579 13 27.0001C13 25.0102 13.4839 23.1337 14.3417 21.4814H14.3424L17.0608 21.9798L18.2516 24.6819C18.0024 25.4085 17.8665 26.1885 17.8665 27.0001C17.8666 27.881 18.0262 28.725 18.3189 29.5036Z" fill="#FBBB00"/>
<path d="M36.7902 24.7578C36.928 25.4837 36.9999 26.2334 36.9999 26.9996C36.9999 27.8587 36.9095 28.6967 36.7375 29.5051C36.1533 32.2558 34.6269 34.6578 32.5124 36.3576L32.5118 36.3569L29.0878 36.1822L28.6032 33.1572C30.0063 32.3343 31.1028 31.0466 31.6804 29.5051H25.2637V24.7578H31.774H36.7902Z" fill="#518EF8"/>
<path d="M32.5119 36.3577L32.5126 36.3584C30.4561 38.0113 27.8438 39.0004 25.0001 39.0004C20.4302 39.0004 16.457 36.4461 14.4302 32.6872L18.319 29.5039C19.3324 32.2085 21.9414 34.1338 25.0001 34.1338C26.3148 34.1338 27.5465 33.7784 28.6033 33.158L32.5119 36.3577Z" fill="#28B446"/>
<path d="M32.6596 17.7626L28.7721 20.9452C27.6783 20.2615 26.3853 19.8666 25 19.8666C21.8721 19.8666 19.2143 21.8802 18.2517 24.6817L14.3425 21.4813H14.3418C16.339 17.6308 20.3622 15 25 15C27.9117 15 30.5814 16.0372 32.6596 17.7626Z" fill="#F14336"/>
</g>
<rect width="64" height="64" rx="10" fill="#F4F5FE"/>
<g clip-path="url(#clip1_1376_1169)">
<path d="M33.5222 12C33.5222 13.0095 33.5222 13.9716 33.5222 14.9336C33.5222 25.2014 33.5222 35.4648 33.5266 45.7325C33.5266 45.9353 33.4778 46 33.2607 46C27.255 45.9914 21.2494 45.9957 15.2438 45.9957C15.1729 45.9957 15.0975 45.9914 15.0044 45.9871C15.0044 45.9051 15.0044 45.8361 15.0044 45.767C15.0044 42.1431 15.0044 38.5192 15 34.8953C15 34.7228 15.0266 34.6063 15.2172 34.5674C15.2792 34.5545 15.3368 34.5114 15.3989 34.4941C15.5629 34.4553 15.6072 34.3604 15.6072 34.1964C15.6028 32.268 15.6072 30.3439 15.5983 28.4154C15.5983 28.2127 15.6693 28.1307 15.8466 28.053C17.7701 27.2333 19.6937 26.405 21.6173 25.5767C21.6749 25.5508 21.7369 25.5336 21.8345 25.499C21.8345 27.6302 21.8345 29.7399 21.8345 31.8883C22.1447 31.7675 22.4151 31.664 22.7032 31.5561C22.7032 33.696 22.7032 35.8056 22.7032 37.9627C22.7918 37.9109 22.8539 37.8807 22.9115 37.8462C23.2262 37.6478 23.5364 37.4364 23.86 37.2509C24.0107 37.1603 24.0594 37.0567 24.0594 36.8842C24.055 32.6778 24.055 28.4715 24.055 24.2652C24.055 22.2073 24.0594 20.1538 24.0506 18.0959C24.0506 17.9234 24.1126 17.8241 24.2589 17.7379C27.2816 15.8655 30.3 13.9888 33.3138 12.1122C33.367 12.082 33.4247 12.0518 33.5222 12ZM32.3831 18.9976C32.321 19.0278 32.29 19.0407 32.259 19.058C31.213 19.7181 30.1626 20.3738 29.121 21.0382C29.0545 21.0813 29.0102 21.2021 29.0102 21.2884C29.0013 22.0132 29.0057 22.738 29.0057 23.4671C29.0057 23.5706 29.0057 23.6742 29.0057 23.8036C29.0722 23.7734 29.1033 23.7604 29.1343 23.7432C30.1803 23.109 31.2263 22.4748 32.2634 21.832C32.3255 21.7932 32.3742 21.6853 32.3742 21.6077C32.3831 21.0123 32.3787 20.417 32.3787 19.8173C32.3831 19.5541 32.3831 19.291 32.3831 18.9976ZM32.3831 14.5454C32.3077 14.5842 32.2678 14.6014 32.2324 14.623C31.1908 15.2788 30.1493 15.9302 29.1166 16.5946C29.0545 16.6334 29.0146 16.7456 29.0102 16.8232C29.0013 17.6041 29.0057 18.3893 29.0057 19.1745C29.0057 19.2262 29.0146 19.278 29.019 19.3427C29.0589 19.3298 29.0811 19.3255 29.0988 19.3125C30.1581 18.6697 31.213 18.0269 32.2678 17.3798C32.321 17.3496 32.3742 17.2719 32.3742 17.2115C32.3875 16.3357 32.3831 15.46 32.3831 14.5454ZM29.0057 28.2644C29.1121 28.204 29.183 28.1652 29.2495 28.1264C30.229 27.5267 31.2086 26.927 32.1969 26.3317C32.3343 26.2497 32.3875 26.1677 32.3875 26.0081C32.3787 25.2186 32.3831 24.4291 32.3831 23.6353C32.3831 23.5792 32.3742 23.5275 32.3698 23.4628C32.3343 23.4714 32.3122 23.4757 32.2944 23.4843C31.2307 24.153 30.1626 24.826 29.0988 25.499C29.0501 25.5292 29.0102 25.6155 29.0057 25.6716C29.0057 26.5258 29.0057 27.3714 29.0057 28.2644ZM32.3831 27.9107C32.321 27.9409 32.29 27.9495 32.259 27.9668C31.213 28.6268 30.1626 29.2826 29.121 29.947C29.0545 29.9901 29.0102 30.1109 29.0102 30.1972C29.0013 30.9737 29.0057 31.7503 29.0057 32.5268C29.0057 32.5786 29.0146 32.6347 29.019 32.708C29.0722 32.6821 29.1033 32.6692 29.1343 32.6519C30.1803 32.0178 31.2218 31.3836 32.2634 30.7365C32.3299 30.6933 32.3787 30.5768 32.3787 30.4905C32.3875 29.8434 32.3831 29.1963 32.3831 28.5492C32.3831 28.3464 32.3831 28.1393 32.3831 27.9107ZM29.0057 37.1646C29.0811 37.1257 29.1166 37.1128 29.1476 37.0955C30.1847 36.4657 31.2218 35.8358 32.2546 35.193C32.321 35.1499 32.3742 35.0334 32.3742 34.9514C32.3831 34.1533 32.3787 33.3552 32.3787 32.5613C32.3787 32.501 32.3698 32.4449 32.3609 32.3758C32.3166 32.3931 32.2989 32.3974 32.2811 32.406C31.2218 33.0704 30.1626 33.7348 29.1077 34.4078C29.0501 34.4466 29.0102 34.5459 29.0057 34.6192C28.9969 35.0722 29.0013 35.5252 29.0013 35.9782C29.0057 36.3578 29.0057 36.7461 29.0057 37.1646ZM25.1542 30.6027C25.2074 30.5768 25.2339 30.5725 25.2561 30.5553C26.1558 30.0074 27.0556 29.4638 27.9509 28.9072C28.0129 28.8684 28.0661 28.7606 28.0661 28.6829C28.075 27.8848 28.0706 27.091 28.0706 26.2929C28.0706 26.254 28.0573 26.2195 28.044 26.1591C27.0955 26.7588 26.1691 27.3412 25.2428 27.9322C25.1852 27.9668 25.1542 28.0746 25.1542 28.148C25.1453 28.5794 25.1497 29.0108 25.1497 29.4422C25.1542 29.8218 25.1542 30.1972 25.1542 30.6027ZM28.075 21.7112C28.0041 21.7457 27.9775 21.7543 27.9509 21.7716C27.06 22.3324 26.1647 22.8933 25.2783 23.4628C25.2118 23.5059 25.1586 23.6224 25.1586 23.7087C25.1497 24.4636 25.1542 25.2186 25.1542 25.9736C25.1542 26.0254 25.163 26.0771 25.1719 26.1375C25.2118 26.1246 25.2384 26.1246 25.2561 26.116C26.1647 25.5638 27.0733 25.0159 27.973 24.455C28.0307 24.4205 28.0661 24.317 28.0706 24.2436C28.0794 23.8899 28.075 23.5404 28.075 23.1867C28.075 22.7035 28.075 22.2246 28.075 21.7112ZM25.1542 21.7026C25.2251 21.6637 25.2605 21.6508 25.2871 21.6335C26.1736 21.0943 27.0644 20.555 27.9465 20.0071C28.0129 19.964 28.0617 19.8475 28.0661 19.7655C28.075 19.14 28.0706 18.5144 28.0706 17.8888C28.0706 17.6904 28.0706 17.4919 28.0706 17.2935C28.0307 17.2935 28.0129 17.2892 28.0041 17.2935C27.0822 17.8716 26.1558 18.4497 25.2339 19.0321C25.1941 19.058 25.1542 19.1227 25.1542 19.1702C25.1542 20.0028 25.1542 20.8354 25.1542 21.7026ZM25.1542 35.0506C25.2074 35.0291 25.2339 35.0204 25.2605 35.0075C26.1603 34.4596 27.0644 33.916 27.9598 33.3595C28.0262 33.3206 28.0706 33.1955 28.0706 33.1136C28.0794 32.3715 28.075 31.6338 28.075 30.8918C28.075 30.8098 28.075 30.7278 28.075 30.6329C28.0218 30.6502 27.9996 30.6502 27.9819 30.6631C27.0777 31.2326 26.1691 31.7977 25.2694 32.3715C25.2074 32.4104 25.1586 32.5225 25.1586 32.6002C25.1497 33.0877 25.1542 33.5795 25.1542 34.067C25.1542 34.3906 25.1542 34.7098 25.1542 35.0506ZM28.0706 35.0765C28.0085 35.1024 27.9775 35.1153 27.9465 35.1326C27.0556 35.6934 26.1603 36.25 25.2738 36.8194C25.2074 36.8626 25.1586 36.9834 25.1586 37.0653C25.1497 37.8203 25.1497 38.5753 25.1542 39.326C25.1542 39.3777 25.1675 39.4295 25.1719 39.4985C25.2339 39.4683 25.2738 39.4511 25.3093 39.4295C26.1913 38.8946 27.0733 38.3596 27.9509 37.816C28.0174 37.7729 28.0661 37.6564 28.0661 37.5744C28.075 36.9144 28.0706 36.2543 28.0706 35.5942C28.0706 35.4303 28.0706 35.2663 28.0706 35.0765ZM21.0677 31.28C21.0145 31.2887 20.9835 31.2844 20.9613 31.2973C20.3319 31.582 19.7026 31.8625 19.0776 32.1558C19.02 32.1817 18.9668 32.2852 18.9668 32.3543C18.958 33.0532 18.9624 33.7477 18.9624 34.4466C18.9624 34.4984 18.9757 34.5545 18.9845 34.6235C19.6538 34.3345 20.3009 34.0584 20.9436 33.765C21.0056 33.7348 21.0632 33.627 21.0632 33.5536C21.0721 33.0704 21.0677 32.5915 21.0677 32.1084C21.0677 31.8366 21.0677 31.5648 21.0677 31.28ZM18.2798 28.4758C18.2399 28.4801 18.2178 28.4715 18.2 28.4801C17.5574 28.7692 16.9147 29.0539 16.2765 29.3516C16.2189 29.3775 16.1745 29.481 16.1745 29.5501C16.1657 30.0807 16.1701 30.6113 16.1657 31.142C16.1657 31.3534 16.1657 31.5648 16.1657 31.8193C16.8748 31.513 17.5396 31.2283 18.2 30.9349C18.2399 30.9177 18.2754 30.8443 18.2754 30.7969C18.2843 30.0246 18.2798 29.2524 18.2798 28.4758ZM16.3961 43.1742C17.092 42.8722 17.7391 42.6004 18.3818 42.3114C18.4438 42.2855 18.497 42.1733 18.497 42.0957C18.5103 41.6988 18.5014 41.3062 18.5014 40.9093C18.5014 40.5512 18.5014 40.1931 18.5014 39.8264C18.4527 39.835 18.4217 39.8307 18.3951 39.8437C17.7657 40.1241 17.1363 40.4045 16.5114 40.6979C16.4493 40.7281 16.4006 40.8402 16.4006 40.9179C16.3917 41.5003 16.3961 42.0827 16.3961 42.6651C16.3961 42.8205 16.3961 42.9758 16.3961 43.1742ZM16.3961 39.4123C17.0964 39.1103 17.748 38.8298 18.3995 38.5365C18.4571 38.5106 18.5014 38.4027 18.5014 38.3337C18.5103 37.6219 18.5059 36.91 18.5059 36.1982C18.5059 36.1551 18.497 36.1076 18.4881 36.0429C17.81 36.3492 17.154 36.6426 16.5025 36.9446C16.4493 36.9704 16.4094 37.0697 16.4094 37.1344C16.4006 37.4277 16.4006 37.7254 16.4006 38.0188C16.3961 38.4675 16.3961 38.9204 16.3961 39.4123ZM20.9037 27.2679C20.815 27.3024 20.753 27.3196 20.6954 27.3455C20.1281 27.6001 19.5607 27.8632 18.989 28.1134C18.8604 28.1695 18.8028 28.2385 18.8028 28.3852C18.8117 29.0669 18.8073 29.7528 18.8073 30.4345C18.8073 30.4905 18.8161 30.5423 18.825 30.6243C19.5031 30.3309 20.1635 30.0462 20.8195 29.7528C20.8682 29.7313 20.8993 29.6277 20.9037 29.5587C20.9126 29.1618 20.9081 28.7692 20.9081 28.3723C20.9037 28.0099 20.9037 27.6518 20.9037 27.2679ZM19.2106 38.2043C19.2682 38.1957 19.2992 38.1957 19.3214 38.1827C19.9419 37.9152 20.5624 37.6521 21.1785 37.376C21.2405 37.3458 21.2982 37.2379 21.2982 37.1646C21.307 36.4614 21.3026 35.7582 21.3026 35.0506C21.3026 34.9989 21.2937 34.9428 21.2849 34.8651C20.6067 35.1714 19.9508 35.4605 19.2992 35.7668C19.246 35.7927 19.2106 35.9048 19.2106 35.9782C19.2017 36.5692 19.2062 37.1559 19.2062 37.747C19.2106 37.8937 19.2106 38.0404 19.2106 38.2043ZM19.2106 41.9706C19.2682 41.9576 19.2992 41.9576 19.3258 41.9447C19.9463 41.6772 20.5668 41.414 21.1829 41.1336C21.245 41.1034 21.3026 40.9956 21.3026 40.9222C21.3115 40.2104 21.307 39.4985 21.307 38.7867C21.307 38.7436 21.2937 38.6961 21.2849 38.6314C20.6112 38.9334 19.9641 39.2224 19.317 39.5201C19.2682 39.5417 19.215 39.628 19.215 39.6797C19.2062 40.4347 19.2106 41.1897 19.2106 41.9706ZM18.435 32.4449C18.333 32.488 18.2665 32.5139 18.2045 32.5441C17.7169 32.7641 17.2383 33.0057 16.7374 33.1955C16.4139 33.3163 16.3031 33.4846 16.3208 33.8254C16.3563 34.4768 16.3297 35.1283 16.3297 35.8056C16.4139 35.7754 16.4759 35.7538 16.5335 35.728C17.0876 35.4907 17.6327 35.2405 18.1912 35.0161C18.3773 34.9428 18.4438 34.8522 18.4394 34.6537C18.4261 34.0066 18.435 33.3595 18.435 32.7123C18.435 32.6347 18.435 32.557 18.435 32.4449Z" fill="#81839C"/>
<path d="M34.3999 12.0996C34.8343 12.3757 35.2376 12.6259 35.6365 12.8805C37.7108 14.2006 39.7895 15.5207 41.8682 16.8366C42.0056 16.9229 42.0454 17.0135 42.0454 17.1644C42.041 26.6988 42.041 36.2288 42.041 45.7631C42.041 45.8278 42.041 45.8882 42.041 45.9702C39.4881 45.9702 36.9528 45.9702 34.4043 45.9702C34.3999 34.6886 34.3999 23.42 34.3999 12.0996Z" fill="#81839C"/>
<path d="M42.666 33.0234C45.7907 33.9941 48.8933 34.9605 52.0002 35.9226C52.0002 39.2229 52.0002 42.5146 52.0002 45.8193C48.8933 45.8193 45.7863 45.8193 42.666 45.8193C42.666 41.5655 42.666 37.3074 42.666 33.0234ZM46.6018 43.0453C46.6018 42.3248 46.6062 41.6432 46.5929 40.9615C46.5929 40.9011 46.4954 40.8148 46.4245 40.7889C45.609 40.4913 44.7935 40.2065 43.9735 39.9175C43.9026 39.8916 43.8273 39.8743 43.7342 39.8441C43.7342 40.6293 43.7297 41.3757 43.743 42.122C43.743 42.1781 43.8317 42.2601 43.8982 42.2817C44.1419 42.3636 44.3946 42.424 44.6428 42.493C45.281 42.6742 45.9237 42.8554 46.6018 43.0453ZM46.5974 38.8389C46.5974 38.1185 46.6018 37.4282 46.5885 36.7423C46.5885 36.6862 46.491 36.6085 46.4245 36.5826C45.6046 36.285 44.7757 35.9959 43.9514 35.7069C43.8849 35.6853 43.8184 35.6723 43.7297 35.6465C43.7297 36.4273 43.7253 37.1737 43.7386 37.92C43.7386 37.9718 43.8361 38.0538 43.9026 38.071C44.4611 38.235 45.0195 38.3903 45.578 38.5499C45.9104 38.6448 46.2384 38.7354 46.5974 38.8389ZM50.1919 39.8571C50.1919 39.1625 50.1875 38.5111 50.1963 37.8596C50.2008 37.7043 50.1431 37.6353 49.9969 37.5835C49.1725 37.2988 48.3481 37.0011 47.5237 36.7121C47.4661 36.6905 47.404 36.6819 47.3243 36.6603C47.3243 37.4368 47.3198 38.1832 47.3287 38.9295C47.3287 38.9813 47.4085 39.0633 47.4661 39.0805C47.7187 39.1625 47.9758 39.2315 48.2284 39.3006C48.8711 39.4818 49.5138 39.663 50.1919 39.8571ZM50.1919 44.0591C50.1919 43.3645 50.183 42.7131 50.1963 42.0616C50.2008 41.8977 50.1343 41.8373 49.9924 41.7898C49.4296 41.5957 48.8711 41.3929 48.3082 41.1988C47.9935 41.0866 47.6744 40.9788 47.3464 40.8666C47.3331 40.9184 47.3243 40.9443 47.3243 40.9745C47.3243 41.6906 47.3198 42.4111 47.3287 43.1272C47.3287 43.1876 47.4218 43.2782 47.4927 43.2998C47.8916 43.4249 48.2949 43.5328 48.6982 43.6449C49.1902 43.7744 49.6733 43.9124 50.1919 44.0591Z" fill="#81839C"/>
</g>
<defs>
<clipPath id="clip0_1376_1169">
<rect width="24" height="24" fill="white" transform="translate(13 15)"/>
</clipPath>
<clipPath id="clip1_1376_1169">
<rect width="37" height="34" fill="white" transform="translate(15 12)"/>
</clipPath>
</defs>
</svg>
